<svg width="30" height="30" viewBox="0 0 30 30" fill="none" xmlns="http://www.w3.org/2000/svg">
<g clip-path="url(#clip0)">
<path d="M19.9069 21.808C19.7875 21.7605 19.654 21.7624 19.5359 21.8135C19.418 21.8645 19.3252 21.9604 19.2779 22.08C19.1879 22.308 19.0844 22.5353 18.9741 22.7573C18.8538 22.9962 18.95 23.2875 19.1888 23.4078C19.4277 23.5281 19.719 23.4319 19.8393 23.1928C19.9631 22.9461 20.0772 22.6921 20.1779 22.4377C20.2256 22.3181 20.2239 22.1846 20.1731 22.0665C20.1223 21.9484 20.0264 21.8555 19.9069 21.808Z" fill="#8E5329"/>
<path d="M18.2796 23.9129C17.2131 25.4049 15.7076 26.5268 13.9731 27.1224C13.8073 27.1765 13.6835 27.3152 13.6487 27.486C13.6138 27.6568 13.6736 27.8331 13.8052 27.9474C13.9365 28.062 14.1194 28.097 14.2838 28.0389C16.2111 27.3778 17.8839 26.1315 19.0687 24.4743C19.2192 24.2564 19.167 23.9583 18.9516 23.8047C18.7358 23.6514 18.437 23.6996 18.2806 23.9129H18.2796Z" fill="#8E5329"/>
<path d="M13.8245 12.0419C14.0615 11.9186 14.1536 11.6263 14.0303 11.3893C13.9067 11.1521 13.6145 11.0602 13.3775 11.1836C12.6904 11.5004 11.9374 11.6476 11.1816 11.6129C10.4218 11.6169 9.66902 11.468 8.96777 11.1748C8.72702 11.0673 8.44444 11.1722 8.33245 11.4108C8.22022 11.6497 8.31992 11.9342 8.55667 12.0507C9.3862 12.4048 10.2795 12.5851 11.1816 12.5806C12.0931 12.617 12.9999 12.4322 13.8245 12.0419Z" fill="#8E5329"/>
<path d="M26.5486 10.0251C27.0133 9.47317 27.3729 8.84091 27.6099 8.15928C27.6142 8.13613 27.617 8.11274 27.6179 8.08911C27.6276 8.05296 27.6328 8.01587 27.6335 7.9783C27.6286 7.94546 27.6205 7.91285 27.6094 7.88166C27.6047 7.85331 27.5976 7.82543 27.5879 7.79826L27.5842 7.79259V7.78621C27.5674 7.76069 27.5482 7.73683 27.527 7.71462C27.5102 7.6884 27.4906 7.66383 27.4686 7.64162C27.4516 7.6298 27.4339 7.61917 27.4152 7.61019C27.3814 7.58515 27.3446 7.56483 27.3054 7.54923L27.2947 7.54829C27.2116 7.52206 25.2727 6.92312 23.9487 7.53506C24.3475 6.93848 24.868 6.4331 25.4759 6.052C25.5867 5.98065 25.6635 5.867 25.6886 5.73753C25.7139 5.60805 25.685 5.47409 25.609 5.36635L24.6993 4.07585C24.6239 3.96906 24.5086 3.89747 24.3794 3.87691C24.2506 3.85565 24.1188 3.88802 24.0146 3.96646C22.507 5.12819 21.5577 6.87044 21.3986 8.76696C20.1667 8.91203 18.988 9.35291 17.9633 10.0518C17.8723 9.98209 17.7842 9.91003 17.6909 9.84269C19.4653 8.35326 20.3125 5.64846 20.3522 5.51733C20.3572 5.49039 20.36 5.46298 20.3602 5.43558C20.369 5.4025 20.374 5.36848 20.3754 5.33445C20.3695 5.29571 20.3591 5.2579 20.3439 5.22175C20.3395 5.19884 20.3333 5.17639 20.3255 5.15442C20.3021 5.11402 20.2728 5.07739 20.2388 5.0455C20.2282 5.03439 20.2225 5.02045 20.2109 5.01029C20.1597 4.96611 20.0999 4.93303 20.0351 4.91342C19.8079 4.83853 16.2993 3.70869 13.9649 4.89122C13.7303 5.01077 13.513 5.13953 13.3055 5.27255C13.9319 4.27526 14.7838 3.43935 15.7925 2.8319C15.908 2.76102 15.9886 2.64477 16.0146 2.51152C16.0403 2.3785 16.0091 2.24076 15.9286 2.1316L14.4982 0.196089C14.3413 -0.0160803 14.0434 -0.063334 13.8284 0.089768C10.8623 2.19445 9.99468 5.48212 9.78417 7.84433C4.55011 8.5073 0.501891 12.7568 0.0933832 18.0169C-0.315125 23.2772 3.02855 28.1006 8.09745 29.5638C13.1666 31.027 18.5663 28.7274 21.0237 24.0585C23.2661 24.4871 25.5825 23.8853 27.3328 22.4193C29.0828 20.9532 30.0815 18.7784 30.0529 16.4955C30.0539 13.885 28.7355 11.4507 26.5486 10.0251ZM25.2049 9.88002C24.7891 10.1042 24.3133 10.1921 23.8447 10.1312L26.0779 9.06041C25.8601 9.40229 25.56 9.68439 25.2049 9.88002ZM25.3883 8.22567C25.4478 8.22567 25.5069 8.22898 25.566 8.23134L23.3443 9.29597C23.5636 8.89762 23.9144 8.58764 24.3369 8.41918C24.6691 8.27907 25.028 8.21291 25.3883 8.22567ZM24.2081 5.05708L24.5387 5.52512C23.441 6.31308 22.6721 7.47812 22.3792 8.79697C22.5207 7.3718 23.17 6.04491 24.2081 5.05826V5.05708ZM16.3968 9.55539C14.8325 10.3483 13.3712 10.3441 12.6279 9.60359L18.9774 6.38018C18.497 7.43583 17.6347 8.9281 16.3968 9.55539ZM14.4004 5.75407C15.6335 5.12985 17.3637 5.30256 18.5169 5.5289L12.178 8.74712C12.178 8.73648 12.1726 8.72585 12.1712 8.71522C12.204 8.36436 12.2586 8.01563 12.3347 7.67162C12.7888 6.81869 13.5163 6.14344 14.4004 5.75407ZM11.1817 29.0324C5.85266 29.0369 1.42688 24.9211 1.04507 19.6058C0.663262 14.2907 4.45513 9.58445 9.73006 8.82697C9.71021 9.45734 9.73833 10.0882 9.81417 10.7143C9.85646 10.9742 10.0986 11.1526 10.3595 11.1157C10.6201 11.0791 10.8037 10.8407 10.7722 10.5791C10.7642 10.5163 9.97011 4.42482 14.0094 1.16573L14.8441 2.29628C13.112 3.48117 11.8926 5.27751 11.4305 7.32454L11.4236 7.33872C11.3986 7.3985 11.3861 7.46252 11.3863 7.52726C11.3116 7.87623 11.2561 8.22921 11.22 8.58409C11.1999 8.64788 11.1935 8.71522 11.2011 8.78161V8.78799C11.1422 9.4356 11.1571 10.0882 11.246 10.7325C11.2937 10.9957 11.5455 11.1703 11.8085 11.1228C12.0717 11.0753 12.2463 10.8234 12.1988 10.5602C12.1988 10.5602 12.1948 10.5385 12.191 10.512C12.764 10.9302 13.46 11.1459 14.1691 11.1249C15.096 11.1013 16.0046 10.8622 16.8233 10.4267C20.5431 12.9128 22.1989 17.5396 20.9006 21.8213C19.6023 26.1027 15.6557 29.031 11.1817 29.0324ZM22.4023 23.2259C22.085 23.223 21.7682 23.1978 21.4544 23.1498C23.2503 18.8414 22.1668 13.8701 18.7409 10.6996C19.5328 10.2051 20.4191 9.8812 21.3431 9.74795C21.3401 10.0714 21.3587 10.3946 21.3986 10.7157C21.4336 10.9522 21.6361 11.1278 21.8754 11.1289C21.8995 11.1289 21.9236 11.1273 21.9475 11.1235C22.1233 11.0975 22.2705 10.977 22.3312 10.81C22.3933 10.9799 22.545 11.1008 22.7246 11.1235C22.9039 11.1464 23.0811 11.0673 23.1839 10.9184C23.4764 11.0585 23.7975 11.1289 24.1221 11.1244C24.6433 11.1133 25.1558 10.9862 25.6219 10.7523C25.6704 10.7301 25.7115 10.7041 25.7566 10.6779C28.369 12.212 29.6364 15.3012 28.8539 18.2281C28.0716 21.155 25.4318 23.1999 22.4023 23.2259Z" fill="#8E5329"/>
<path d="M28.1174 16.0117C27.8502 16.0117 27.6335 16.2283 27.6335 16.4955C27.6335 16.7793 27.6111 17.0626 27.5662 17.3428C27.5241 17.6065 27.7037 17.8546 27.9674 17.8968C27.9929 17.9011 28.0189 17.9032 28.0448 17.9032C28.2823 17.9028 28.4843 17.7303 28.5219 17.4957C28.5748 17.1649 28.6013 16.8306 28.6013 16.4955C28.6013 16.2283 28.3846 16.0117 28.1174 16.0117Z" fill="#8E5329"/>
<path d="M27.8076 18.4296C27.564 18.3195 27.2774 18.428 27.1676 18.6716C26.7078 19.688 25.9404 20.5343 24.9736 21.091C24.7416 21.2237 24.6612 21.5196 24.794 21.7513C24.9268 21.9834 25.2226 22.0637 25.4546 21.9309C26.5979 21.2722 27.5057 20.2713 28.05 19.0692C28.1597 18.8256 28.0512 18.5395 27.8076 18.4296Z" fill="#8E5329"/>
<path d="M24.1568 11.3326C24.0021 11.1148 23.7001 11.0637 23.4823 11.2185C23.125 11.4744 22.6967 11.6121 22.2572 11.6128C21.8471 11.588 21.4525 11.4467 21.1201 11.2053C20.8954 11.0687 20.6026 11.1363 20.4609 11.3579C20.3191 11.5793 20.3803 11.8734 20.5984 12.0202C21.6247 12.7727 23.022 12.7675 24.0427 12.0072C24.2603 11.8524 24.3116 11.5505 24.1568 11.3326Z" fill="#8E5329"/>
<path d="M6.48468 17.0773L4.54917 19.0128C4.42348 19.1342 4.37291 19.314 4.41733 19.4832C4.46151 19.6526 4.59359 19.7847 4.76276 19.8289C4.93192 19.8733 5.11196 19.8227 5.2334 19.697L7.16891 17.7615C7.35226 17.5716 7.34966 17.2698 7.16301 17.0832C6.97636 16.8965 6.67464 16.8939 6.48468 17.0773Z" fill="#8E5329"/>
<path d="M9.87177 17.0773L7.93626 19.0128C7.81056 19.1342 7.76 19.314 7.80442 19.4832C7.8486 19.6526 7.98067 19.7847 8.14984 19.8289C8.31901 19.8733 8.49905 19.8227 8.62049 19.697L10.556 17.7615C10.7393 17.5716 10.7367 17.2698 10.5501 17.0832C10.3634 16.8965 10.0617 16.8939 9.87177 17.0773Z" fill="#8E5329"/>
<path d="M13.9431 17.0772C13.7541 16.8882 13.4479 16.8882 13.2589 17.0772L11.3233 19.0127C11.1976 19.1341 11.1471 19.3139 11.1915 19.4831C11.2357 19.6525 11.3678 19.7846 11.5369 19.8288C11.7061 19.8732 11.8861 19.8226 12.0076 19.6969L13.9431 17.7614C14.1319 17.5724 14.1319 17.2662 13.9431 17.0772Z" fill="#8E5329"/>
<path d="M15.0527 19.8388C15.181 19.8388 15.3041 19.7878 15.3948 19.697L17.3303 17.7615C17.5137 17.5716 17.5111 17.2698 17.3244 17.0832C17.1378 16.8965 16.8361 16.8939 16.6461 17.0773L14.7106 19.0128C14.5722 19.1512 14.5308 19.3592 14.6057 19.5399C14.6806 19.7209 14.8571 19.8388 15.0527 19.8388Z" fill="#8E5329"/>
<path d="M25.2141 15.9677C25.3424 15.9677 25.4655 15.9167 25.5562 15.826L26.524 14.8582C26.7073 14.6682 26.7047 14.3665 26.5181 14.1799C26.3314 13.9932 26.0297 13.9906 25.8397 14.174L24.872 15.1417C24.7335 15.2802 24.6922 15.4881 24.7671 15.6688C24.842 15.8498 25.0185 15.9677 25.2141 15.9677Z" fill="#8E5329"/>
<path d="M23.4204 14.174L22.4526 15.1417C22.3269 15.2632 22.2764 15.443 22.3208 15.6121C22.365 15.7815 22.497 15.9136 22.6662 15.9578C22.8354 16.0022 23.0154 15.9516 23.1368 15.8259L24.1046 14.8582C24.2879 14.6682 24.2853 14.3665 24.0987 14.1799C23.912 13.9932 23.6103 13.9906 23.4204 14.174Z" fill="#8E5329"/>
</g>
<defs>
<clipPath id="clip0">
<rect width="30" height="30" fill="white"/>
</clipPath>
</defs>
</svg>
