<svg width="259" height="53" viewBox="0 0 259 53" fill="none" xmlns="http://www.w3.org/2000/svg">
<path d="M77.48 11V19.26C77.48 21.2067 76.9533 22.6933 75.9 23.72C74.8467 24.7333 73.3533 25.24 71.42 25.24C70.46 25.24 69.6 25.1 68.84 24.82C68.0933 24.54 67.48 24.1467 67 23.64C66.5067 24.1467 65.8867 24.54 65.14 24.82C64.3933 25.1 63.5467 25.24 62.6 25.24C60.6667 25.24 59.1733 24.7333 58.12 23.72C57.0667 22.6933 56.54 21.2067 56.54 19.26V11H59.78V19.16C59.78 20.2933 60.0133 21.1333 60.48 21.68C60.9467 22.2133 61.64 22.48 62.56 22.48C64.44 22.48 65.38 21.3733 65.38 19.16V11H68.62V19.16C68.62 21.3733 69.5667 22.48 71.46 22.48C73.3 22.48 74.22 21.3733 74.22 19.16V11H77.48ZM86.9834 10.76C88.2768 10.76 89.4034 11.0133 90.3634 11.52C91.3234 12.0267 92.0701 12.7733 92.6034 13.76C93.1368 14.7467 93.4034 15.94 93.4034 17.34V25H90.1634V21.64H83.7634V25H80.5634V17.34C80.5634 15.94 80.8301 14.7467 81.3634 13.76C81.8968 12.7733 82.6434 12.0267 83.6034 11.52C84.5634 11.0133 85.6901 10.76 86.9834 10.76ZM90.1634 19.04V17.04C90.1634 15.88 89.8768 15.0067 89.3034 14.42C88.7301 13.82 87.9501 13.52 86.9634 13.52C85.9634 13.52 85.1768 13.82 84.6034 14.42C84.0434 15.0067 83.7634 15.88 83.7634 17.04V19.04H90.1634ZM108.73 11V20.62C108.73 22.7267 108.144 24.34 106.97 25.46C105.797 26.5933 104.177 27.16 102.11 27.16C100.924 27.16 99.837 26.9933 98.8503 26.66C97.8636 26.34 97.0236 25.88 96.3303 25.28L97.5903 22.88C98.857 23.9067 100.337 24.42 102.03 24.42C103.204 24.42 104.07 24.1267 104.63 23.54C105.204 22.94 105.49 22.02 105.49 20.78V19.92C104.557 21.0667 103.237 21.64 101.53 21.64C99.757 21.64 98.3903 21.14 97.4303 20.14C96.4836 19.1267 96.0103 17.6733 96.0103 15.78V11H99.2503V15.58C99.2503 16.6733 99.5103 17.5 100.03 18.06C100.55 18.62 101.284 18.9 102.23 18.9C103.23 18.9 104.024 18.6067 104.61 18.02C105.197 17.4333 105.49 16.5467 105.49 15.36V11H108.73ZM124.453 11V25H121.313V23.3C120.353 24.5933 118.94 25.24 117.073 25.24C115.42 25.24 114.127 24.72 113.193 23.68C112.273 22.6267 111.813 21.1333 111.813 19.2V11H115.053V19.1C115.053 20.22 115.313 21.0667 115.833 21.64C116.367 22.2 117.087 22.48 117.993 22.48C118.967 22.48 119.747 22.18 120.333 21.58C120.92 20.9667 121.213 20.0667 121.213 18.88V11H124.453ZM133.833 11C135.073 11 136.147 11.2067 137.053 11.62C137.973 12.0333 138.68 12.62 139.173 13.38C139.667 14.14 139.913 15.04 139.913 16.08C139.913 17.1067 139.667 18.0067 139.173 18.78C138.68 19.54 137.973 20.1267 137.053 20.54C136.147 20.94 135.073 21.14 133.833 21.14H131.013V25H127.773V11H133.833ZM133.653 18.5C134.627 18.5 135.367 18.2933 135.873 17.88C136.38 17.4533 136.633 16.8533 136.633 16.08C136.633 15.2933 136.38 14.6933 135.873 14.28C135.367 13.8533 134.627 13.64 133.653 13.64H131.013V18.5H133.653ZM154.786 25.24C153.359 25.24 152.066 24.9333 150.906 24.32C149.759 23.6933 148.852 22.8333 148.186 21.74C147.532 20.6333 147.206 19.3867 147.206 18C147.206 16.6133 147.532 15.3733 148.186 14.28C148.852 13.1733 149.759 12.3133 150.906 11.7C152.066 11.0733 153.366 10.76 154.806 10.76C156.019 10.76 157.112 10.9733 158.086 11.4C159.072 11.8267 159.899 12.44 160.566 13.24L158.486 15.16C157.539 14.0667 156.366 13.52 154.966 13.52C154.099 13.52 153.326 13.7133 152.646 14.1C151.966 14.4733 151.432 15 151.046 15.68C150.672 16.36 150.486 17.1333 150.486 18C150.486 18.8667 150.672 19.64 151.046 20.32C151.432 21 151.966 21.5333 152.646 21.92C153.326 22.2933 154.099 22.48 154.966 22.48C156.366 22.48 157.539 21.9267 158.486 20.82L160.566 22.74C159.899 23.5533 159.072 24.1733 158.086 24.6C157.099 25.0267 155.999 25.24 154.786 25.24ZM169.054 10.76C170.347 10.76 171.474 11.0133 172.434 11.52C173.394 12.0267 174.14 12.7733 174.674 13.76C175.207 14.7467 175.474 15.94 175.474 17.34V25H172.234V21.64H165.834V25H162.634V17.34C162.634 15.94 162.9 14.7467 163.434 13.76C163.967 12.7733 164.714 12.0267 165.674 11.52C166.634 11.0133 167.76 10.76 169.054 10.76ZM172.234 19.04V17.04C172.234 15.88 171.947 15.0067 171.374 14.42C170.8 13.82 170.02 13.52 169.034 13.52C168.034 13.52 167.247 13.82 166.674 14.42C166.114 15.0067 165.834 15.88 165.834 17.04V19.04H172.234ZM194.652 10.76C196.305 10.76 197.592 11.2467 198.512 12.22C199.432 13.18 199.892 14.5733 199.892 16.4V25H196.652V16.5C196.652 15.5133 196.392 14.7733 195.872 14.28C195.365 13.7733 194.692 13.52 193.852 13.52C192.932 13.52 192.198 13.7867 191.652 14.32C191.105 14.84 190.832 15.6333 190.832 16.7V25H187.592V16.5C187.592 15.5133 187.352 14.7733 186.872 14.28C186.392 13.7733 185.738 13.52 184.912 13.52C184.005 13.52 183.278 13.7867 182.732 14.32C182.185 14.84 181.912 15.6333 181.912 16.7V25H178.672V11H181.812V12.72C182.238 12.0933 182.805 11.6133 183.512 11.28C184.218 10.9333 185.032 10.76 185.952 10.76C186.912 10.76 187.752 10.94 188.472 11.3C189.192 11.6467 189.745 12.1533 190.132 12.82C190.612 12.1533 191.238 11.6467 192.012 11.3C192.798 10.94 193.678 10.76 194.652 10.76ZM209.146 11C210.386 11 211.459 11.2067 212.366 11.62C213.286 12.0333 213.992 12.62 214.486 13.38C214.979 14.14 215.226 15.04 215.226 16.08C215.226 17.1067 214.979 18.0067 214.486 18.78C213.992 19.54 213.286 20.1267 212.366 20.54C211.459 20.94 210.386 21.14 209.146 21.14H206.326V25H203.086V11H209.146ZM208.966 18.5C209.939 18.5 210.679 18.2933 211.186 17.88C211.692 17.4533 211.946 16.8533 211.946 16.08C211.946 15.2933 211.692 14.6933 211.186 14.28C210.679 13.8533 209.939 13.64 208.966 13.64H206.326V18.5H208.966Z" fill="white"/>
<path d="M59.55 41.827H57.47V46H56.534V36.9H57.47V40.982H59.55L62.631 36.9H63.671L60.291 41.32L63.866 46H62.761L59.55 41.827ZM67.8684 46.065C67.2097 46.065 66.616 45.9177 66.0874 45.623C65.5587 45.3197 65.1427 44.9037 64.8394 44.375C64.536 43.8463 64.3844 43.2483 64.3844 42.581C64.3844 41.9137 64.536 41.3157 64.8394 40.787C65.1427 40.2583 65.5587 39.8467 66.0874 39.552C66.616 39.2573 67.2097 39.11 67.8684 39.11C68.527 39.11 69.1207 39.2573 69.6494 39.552C70.178 39.8467 70.5897 40.2583 70.8844 40.787C71.1877 41.3157 71.3394 41.9137 71.3394 42.581C71.3394 43.2483 71.1877 43.8463 70.8844 44.375C70.5897 44.9037 70.178 45.3197 69.6494 45.623C69.1207 45.9177 68.527 46.065 67.8684 46.065ZM67.8684 45.246C68.3537 45.246 68.787 45.1377 69.1684 44.921C69.5584 44.6957 69.8617 44.3793 70.0784 43.972C70.295 43.5647 70.4034 43.101 70.4034 42.581C70.4034 42.061 70.295 41.5973 70.0784 41.19C69.8617 40.7827 69.5584 40.4707 69.1684 40.254C68.787 40.0287 68.3537 39.916 67.8684 39.916C67.383 39.916 66.9454 40.0287 66.5554 40.254C66.174 40.4707 65.8707 40.7827 65.6454 41.19C65.4287 41.5973 65.3204 42.061 65.3204 42.581C65.3204 43.101 65.4287 43.5647 65.6454 43.972C65.8707 44.3793 66.174 44.6957 66.5554 44.921C66.9454 45.1377 67.383 45.246 67.8684 45.246ZM78.473 39.162V46H77.55V43.153C76.7614 43.4997 75.9857 43.673 75.223 43.673C74.3997 43.673 73.7584 43.4867 73.299 43.114C72.8397 42.7327 72.61 42.165 72.61 41.411V39.162H73.533V41.359C73.533 41.8703 73.6977 42.2603 74.027 42.529C74.3564 42.789 74.8114 42.919 75.392 42.919C76.0334 42.919 76.7527 42.75 77.55 42.412V39.162H78.473ZM87.0743 42.867H81.3543C81.4063 43.5777 81.6793 44.154 82.1733 44.596C82.6673 45.0293 83.2913 45.246 84.0453 45.246C84.4699 45.246 84.8599 45.1723 85.2153 45.025C85.5706 44.869 85.8783 44.6437 86.1383 44.349L86.6583 44.947C86.3549 45.311 85.9736 45.5883 85.5143 45.779C85.0636 45.9697 84.5653 46.065 84.0193 46.065C83.3173 46.065 82.6933 45.9177 82.1473 45.623C81.6099 45.3197 81.1896 44.9037 80.8863 44.375C80.5829 43.8463 80.4313 43.2483 80.4313 42.581C80.4313 41.9137 80.5743 41.3157 80.8603 40.787C81.1549 40.2583 81.5536 39.8467 82.0563 39.552C82.5676 39.2573 83.1396 39.11 83.7723 39.11C84.4049 39.11 84.9726 39.2573 85.4753 39.552C85.9779 39.8467 86.3723 40.2583 86.6583 40.787C86.9443 41.307 87.0873 41.905 87.0873 42.581L87.0743 42.867ZM83.7723 39.903C83.1136 39.903 82.5589 40.1153 82.1083 40.54C81.6663 40.956 81.4149 41.502 81.3543 42.178H86.2033C86.1426 41.502 85.8869 40.956 85.4363 40.54C84.9943 40.1153 84.4396 39.903 83.7723 39.903ZM93.4854 42.464C94.4127 42.6807 94.8764 43.2397 94.8764 44.141C94.8764 44.739 94.6554 45.1983 94.2134 45.519C93.7714 45.8397 93.1127 46 92.2374 46H89.1304V39.162H92.1464C92.9264 39.162 93.5374 39.3137 93.9794 39.617C94.4214 39.9203 94.6424 40.3537 94.6424 40.917C94.6424 41.2897 94.5384 41.6103 94.3304 41.879C94.131 42.139 93.8494 42.334 93.4854 42.464ZM90.0274 42.204H92.0814C92.61 42.204 93.013 42.1043 93.2904 41.905C93.5764 41.7057 93.7194 41.4153 93.7194 41.034C93.7194 40.6527 93.5764 40.3667 93.2904 40.176C93.013 39.9853 92.61 39.89 92.0814 39.89H90.0274V42.204ZM92.1984 45.272C92.7877 45.272 93.2297 45.1767 93.5244 44.986C93.819 44.7953 93.9664 44.4963 93.9664 44.089C93.9664 43.6817 93.832 43.3827 93.5634 43.192C93.2947 42.9927 92.87 42.893 92.2894 42.893H90.0274V45.272H92.1984ZM99.8606 46.065C99.2019 46.065 98.6082 45.9177 98.0796 45.623C97.5509 45.3197 97.1349 44.9037 96.8316 44.375C96.5282 43.8463 96.3766 43.2483 96.3766 42.581C96.3766 41.9137 96.5282 41.3157 96.8316 40.787C97.1349 40.2583 97.5509 39.8467 98.0796 39.552C98.6082 39.2573 99.2019 39.11 99.8606 39.11C100.519 39.11 101.113 39.2573 101.642 39.552C102.17 39.8467 102.582 40.2583 102.877 40.787C103.18 41.3157 103.332 41.9137 103.332 42.581C103.332 43.2483 103.18 43.8463 102.877 44.375C102.582 44.9037 102.17 45.3197 101.642 45.623C101.113 45.9177 100.519 46.065 99.8606 46.065ZM99.8606 45.246C100.346 45.246 100.779 45.1377 101.161 44.921C101.551 44.6957 101.854 44.3793 102.071 43.972C102.287 43.5647 102.396 43.101 102.396 42.581C102.396 42.061 102.287 41.5973 102.071 41.19C101.854 40.7827 101.551 40.4707 101.161 40.254C100.779 40.0287 100.346 39.916 99.8606 39.916C99.3752 39.916 98.9376 40.0287 98.5476 40.254C98.1662 40.4707 97.8629 40.7827 97.6376 41.19C97.4209 41.5973 97.3126 42.061 97.3126 42.581C97.3126 43.101 97.4209 43.5647 97.6376 43.972C97.8629 44.3793 98.1662 44.6957 98.5476 44.921C98.9376 45.1377 99.3752 45.246 99.8606 45.246ZM105.304 39.162H106.227V44.596L110.79 39.162H111.609V46H110.686V40.566L106.136 46H105.304V39.162ZM108.411 38.174C107.822 38.174 107.354 38.0267 107.007 37.732C106.661 37.4373 106.483 37.0213 106.474 36.484H107.137C107.146 36.822 107.267 37.095 107.501 37.303C107.735 37.5023 108.039 37.602 108.411 37.602C108.784 37.602 109.087 37.5023 109.321 37.303C109.564 37.095 109.69 36.822 109.698 36.484H110.361C110.353 37.0213 110.171 37.4373 109.815 37.732C109.469 38.0267 109.001 38.174 108.411 38.174ZM123.247 39.162V46H122.324V39.981H119.048L118.957 41.671C118.887 43.0923 118.723 44.1843 118.463 44.947C118.203 45.7097 117.739 46.091 117.072 46.091C116.89 46.091 116.669 46.0563 116.409 45.987L116.474 45.194C116.63 45.2287 116.738 45.246 116.799 45.246C117.154 45.246 117.423 45.0813 117.605 44.752C117.787 44.4227 117.908 44.0153 117.969 43.53C118.029 43.0447 118.081 42.4033 118.125 41.606L118.242 39.162H123.247ZM128.224 39.11C129.116 39.11 129.801 39.3353 130.278 39.786C130.754 40.228 130.993 40.8867 130.993 41.762V46H130.109V44.934C129.901 45.2893 129.593 45.5667 129.186 45.766C128.787 45.9653 128.31 46.065 127.756 46.065C126.993 46.065 126.386 45.883 125.936 45.519C125.485 45.155 125.26 44.674 125.26 44.076C125.26 43.4953 125.468 43.0273 125.884 42.672C126.308 42.3167 126.98 42.139 127.899 42.139H130.07V41.723C130.07 41.1337 129.905 40.6873 129.576 40.384C129.246 40.072 128.765 39.916 128.133 39.916C127.699 39.916 127.283 39.9897 126.885 40.137C126.486 40.2757 126.144 40.4707 125.858 40.722L125.442 40.033C125.788 39.7383 126.204 39.513 126.69 39.357C127.175 39.1923 127.686 39.11 128.224 39.11ZM127.899 45.337C128.419 45.337 128.865 45.22 129.238 44.986C129.61 44.7433 129.888 44.3967 130.07 43.946V42.828H127.925C126.755 42.828 126.17 43.2353 126.17 44.05C126.17 44.4487 126.321 44.765 126.625 44.999C126.928 45.2243 127.353 45.337 127.899 45.337ZM138.286 39.981H134.373V46H133.45V39.162H138.286V39.981ZM145.282 42.867H139.562C139.614 43.5777 139.887 44.154 140.381 44.596C140.875 45.0293 141.499 45.246 142.253 45.246C142.678 45.246 143.068 45.1723 143.423 45.025C143.779 44.869 144.086 44.6437 144.346 44.349L144.866 44.947C144.563 45.311 144.182 45.5883 143.722 45.779C143.272 45.9697 142.773 46.065 142.227 46.065C141.525 46.065 140.901 45.9177 140.355 45.623C139.818 45.3197 139.398 44.9037 139.094 44.375C138.791 43.8463 138.639 43.2483 138.639 42.581C138.639 41.9137 138.782 41.3157 139.068 40.787C139.363 40.2583 139.762 39.8467 140.264 39.552C140.776 39.2573 141.348 39.11 141.98 39.11C142.613 39.11 143.181 39.2573 143.683 39.552C144.186 39.8467 144.58 40.2583 144.866 40.787C145.152 41.307 145.295 41.905 145.295 42.581L145.282 42.867ZM141.98 39.903C141.322 39.903 140.767 40.1153 140.316 40.54C139.874 40.956 139.623 41.502 139.562 42.178H144.411C144.351 41.502 144.095 40.956 143.644 40.54C143.202 40.1153 142.648 39.903 141.98 39.903ZM150.861 39.11C151.503 39.11 152.083 39.2573 152.603 39.552C153.123 39.838 153.531 40.2453 153.825 40.774C154.12 41.3027 154.267 41.905 154.267 42.581C154.267 43.2657 154.12 43.8723 153.825 44.401C153.531 44.9297 153.123 45.3413 152.603 45.636C152.092 45.922 151.511 46.065 150.861 46.065C150.307 46.065 149.804 45.9523 149.353 45.727C148.911 45.493 148.547 45.155 148.261 44.713V48.522H147.338V39.162H148.222V40.514C148.5 40.0633 148.864 39.7167 149.314 39.474C149.774 39.2313 150.289 39.11 150.861 39.11ZM150.796 45.246C151.273 45.246 151.706 45.1377 152.096 44.921C152.486 44.6957 152.79 44.3793 153.006 43.972C153.232 43.5647 153.344 43.101 153.344 42.581C153.344 42.061 153.232 41.6017 153.006 41.203C152.79 40.7957 152.486 40.4793 152.096 40.254C151.706 40.0287 151.273 39.916 150.796 39.916C150.311 39.916 149.873 40.0287 149.483 40.254C149.102 40.4793 148.799 40.7957 148.573 41.203C148.357 41.6017 148.248 42.061 148.248 42.581C148.248 43.101 148.357 43.5647 148.573 43.972C148.799 44.3793 149.102 44.6957 149.483 44.921C149.873 45.1377 150.311 45.246 150.796 45.246ZM159.189 41.58C160.047 41.5887 160.697 41.7793 161.139 42.152C161.589 42.5247 161.815 43.062 161.815 43.764C161.815 44.492 161.572 45.051 161.087 45.441C160.61 45.831 159.917 46.0217 159.007 46.013L156.251 46V39.162H157.174V41.554L159.189 41.58ZM158.955 45.311C159.587 45.3197 160.064 45.194 160.385 44.934C160.714 44.6653 160.879 44.2753 160.879 43.764C160.879 43.2613 160.718 42.8887 160.398 42.646C160.077 42.4033 159.596 42.2777 158.955 42.269L157.174 42.243V45.285L158.955 45.311ZM175.233 42.568C175.233 43.634 174.882 44.4703 174.18 45.077C173.478 45.6837 172.486 46.013 171.203 46.065V48.522H170.306V46.078C169.032 46.026 168.044 45.6967 167.342 45.09C166.649 44.4747 166.302 43.634 166.302 42.568C166.302 41.5107 166.649 40.683 167.342 40.085C168.044 39.487 169.032 39.162 170.306 39.11V36.354H171.203V39.11C172.486 39.1707 173.478 39.5 174.18 40.098C174.882 40.696 175.233 41.5193 175.233 42.568ZM167.212 42.568C167.212 43.3827 167.472 44.0197 167.992 44.479C168.521 44.9383 169.292 45.1983 170.306 45.259V39.929C169.301 39.981 168.534 40.2367 168.005 40.696C167.476 41.1467 167.212 41.7707 167.212 42.568ZM171.203 45.259C172.217 45.207 172.988 44.9513 173.517 44.492C174.054 44.0327 174.323 43.3913 174.323 42.568C174.323 41.762 174.054 41.1337 173.517 40.683C172.988 40.2323 172.217 39.981 171.203 39.929V45.259ZM180.708 39.11C181.349 39.11 181.93 39.2573 182.45 39.552C182.97 39.838 183.377 40.2453 183.672 40.774C183.967 41.3027 184.114 41.905 184.114 42.581C184.114 43.2657 183.967 43.8723 183.672 44.401C183.377 44.9297 182.97 45.3413 182.45 45.636C181.939 45.922 181.358 46.065 180.708 46.065C180.153 46.065 179.651 45.9523 179.2 45.727C178.758 45.493 178.394 45.155 178.108 44.713V48.522H177.185V39.162H178.069V40.514C178.346 40.0633 178.71 39.7167 179.161 39.474C179.62 39.2313 180.136 39.11 180.708 39.11ZM180.643 45.246C181.12 45.246 181.553 45.1377 181.943 44.921C182.333 44.6957 182.636 44.3793 182.853 43.972C183.078 43.5647 183.191 43.101 183.191 42.581C183.191 42.061 183.078 41.6017 182.853 41.203C182.636 40.7957 182.333 40.4793 181.943 40.254C181.553 40.0287 181.12 39.916 180.643 39.916C180.158 39.916 179.72 40.0287 179.33 40.254C178.949 40.4793 178.645 40.7957 178.42 41.203C178.203 41.6017 178.095 42.061 178.095 42.581C178.095 43.101 178.203 43.5647 178.42 43.972C178.645 44.3793 178.949 44.6957 179.33 44.921C179.72 45.1377 180.158 45.246 180.643 45.246ZM186.097 39.162H187.02V44.596L191.583 39.162H192.402V46H191.479V40.566L186.929 46H186.097V39.162ZM200.637 39.162V46H199.714V39.981H196.438L196.347 41.671C196.278 43.0923 196.113 44.1843 195.853 44.947C195.593 45.7097 195.13 46.091 194.462 46.091C194.28 46.091 194.059 46.0563 193.799 45.987L193.864 45.194C194.02 45.2287 194.129 45.246 194.189 45.246C194.545 45.246 194.813 45.0813 194.995 44.752C195.177 44.4227 195.299 44.0153 195.359 43.53C195.42 43.0447 195.472 42.4033 195.515 41.606L195.632 39.162H200.637ZM205.614 39.11C206.507 39.11 207.192 39.3353 207.668 39.786C208.145 40.228 208.383 40.8867 208.383 41.762V46H207.499V44.934C207.291 45.2893 206.984 45.5667 206.576 45.766C206.178 45.9653 205.701 46.065 205.146 46.065C204.384 46.065 203.777 45.883 203.326 45.519C202.876 45.155 202.65 44.674 202.65 44.076C202.65 43.4953 202.858 43.0273 203.274 42.672C203.699 42.3167 204.371 42.139 205.289 42.139H207.46V41.723C207.46 41.1337 207.296 40.6873 206.966 40.384C206.637 40.072 206.156 39.916 205.523 39.916C205.09 39.916 204.674 39.9897 204.275 40.137C203.877 40.2757 203.534 40.4707 203.248 40.722L202.832 40.033C203.179 39.7383 203.595 39.513 204.08 39.357C204.566 39.1923 205.077 39.11 205.614 39.11ZM205.289 45.337C205.809 45.337 206.256 45.22 206.628 44.986C207.001 44.7433 207.278 44.3967 207.46 43.946V42.828H205.315C204.145 42.828 203.56 43.2353 203.56 44.05C203.56 44.4487 203.712 44.765 204.015 44.999C204.319 45.2243 204.743 45.337 205.289 45.337ZM210.84 39.162H211.763V42.191H216.066V39.162H216.989V46H216.066V42.984H211.763V46H210.84V39.162ZM222.473 46.065C221.797 46.065 221.19 45.9177 220.653 45.623C220.124 45.3283 219.708 44.9167 219.405 44.388C219.101 43.8507 218.95 43.2483 218.95 42.581C218.95 41.9137 219.101 41.3157 219.405 40.787C219.708 40.2583 220.124 39.8467 220.653 39.552C221.19 39.2573 221.797 39.11 222.473 39.11C223.062 39.11 223.586 39.227 224.046 39.461C224.514 39.6863 224.882 40.02 225.151 40.462L224.462 40.93C224.236 40.592 223.95 40.3407 223.604 40.176C223.257 40.0027 222.88 39.916 222.473 39.916C221.979 39.916 221.532 40.0287 221.134 40.254C220.744 40.4707 220.436 40.7827 220.211 41.19C219.994 41.5973 219.886 42.061 219.886 42.581C219.886 43.1097 219.994 43.5777 220.211 43.985C220.436 44.3837 220.744 44.6957 221.134 44.921C221.532 45.1377 221.979 45.246 222.473 45.246C222.88 45.246 223.257 45.1637 223.604 44.999C223.95 44.8343 224.236 44.583 224.462 44.245L225.151 44.713C224.882 45.155 224.514 45.493 224.046 45.727C223.578 45.9523 223.053 46.065 222.473 46.065ZM232.804 42.867H227.084C227.136 43.5777 227.409 44.154 227.903 44.596C228.397 45.0293 229.021 45.246 229.775 45.246C230.199 45.246 230.589 45.1723 230.945 45.025C231.3 44.869 231.608 44.6437 231.868 44.349L232.388 44.947C232.084 45.311 231.703 45.5883 231.244 45.779C230.793 45.9697 230.295 46.065 229.749 46.065C229.047 46.065 228.423 45.9177 227.877 45.623C227.339 45.3197 226.919 44.9037 226.616 44.375C226.312 43.8463 226.161 43.2483 226.161 42.581C226.161 41.9137 226.304 41.3157 226.59 40.787C226.884 40.2583 227.283 39.8467 227.786 39.552C228.297 39.2573 228.869 39.11 229.502 39.11C230.134 39.11 230.702 39.2573 231.205 39.552C231.707 39.8467 232.102 40.2583 232.388 40.787C232.674 41.307 232.817 41.905 232.817 42.581L232.804 42.867ZM229.502 39.903C228.843 39.903 228.288 40.1153 227.838 40.54C227.396 40.956 227.144 41.502 227.084 42.178H231.933C231.872 41.502 231.616 40.956 231.166 40.54C230.724 40.1153 230.169 39.903 229.502 39.903ZM238.383 39.11C239.024 39.11 239.605 39.2573 240.125 39.552C240.645 39.838 241.052 40.2453 241.347 40.774C241.642 41.3027 241.789 41.905 241.789 42.581C241.789 43.2657 241.642 43.8723 241.347 44.401C241.052 44.9297 240.645 45.3413 240.125 45.636C239.614 45.922 239.033 46.065 238.383 46.065C237.828 46.065 237.326 45.9523 236.875 45.727C236.433 45.493 236.069 45.155 235.783 44.713V48.522H234.86V39.162H235.744V40.514C236.021 40.0633 236.385 39.7167 236.836 39.474C237.295 39.2313 237.811 39.11 238.383 39.11ZM238.318 45.246C238.795 45.246 239.228 45.1377 239.618 44.921C240.008 44.6957 240.311 44.3793 240.528 43.972C240.753 43.5647 240.866 43.101 240.866 42.581C240.866 42.061 240.753 41.6017 240.528 41.203C240.311 40.7957 240.008 40.4793 239.618 40.254C239.228 40.0287 238.795 39.916 238.318 39.916C237.833 39.916 237.395 40.0287 237.005 40.254C236.624 40.4793 236.32 40.7957 236.095 41.203C235.878 41.6017 235.77 42.061 235.77 42.581C235.77 43.101 235.878 43.5647 236.095 43.972C236.32 44.3793 236.624 44.6957 237.005 44.921C237.395 45.1377 237.833 45.246 238.318 45.246ZM246.593 46.065C245.934 46.065 245.341 45.9177 244.812 45.623C244.283 45.3197 243.867 44.9037 243.564 44.375C243.261 43.8463 243.109 43.2483 243.109 42.581C243.109 41.9137 243.261 41.3157 243.564 40.787C243.867 40.2583 244.283 39.8467 244.812 39.552C245.341 39.2573 245.934 39.11 246.593 39.11C247.252 39.11 247.845 39.2573 248.374 39.552C248.903 39.8467 249.314 40.2583 249.609 40.787C249.912 41.3157 250.064 41.9137 250.064 42.581C250.064 43.2483 249.912 43.8463 249.609 44.375C249.314 44.9037 248.903 45.3197 248.374 45.623C247.845 45.9177 247.252 46.065 246.593 46.065ZM246.593 45.246C247.078 45.246 247.512 45.1377 247.893 44.921C248.283 44.6957 248.586 44.3793 248.803 43.972C249.02 43.5647 249.128 43.101 249.128 42.581C249.128 42.061 249.02 41.5973 248.803 41.19C248.586 40.7827 248.283 40.4707 247.893 40.254C247.512 40.0287 247.078 39.916 246.593 39.916C246.108 39.916 245.67 40.0287 245.28 40.254C244.899 40.4707 244.595 40.7827 244.37 41.19C244.153 41.5973 244.045 42.061 244.045 42.581C244.045 43.101 244.153 43.5647 244.37 43.972C244.595 44.3793 244.899 44.6957 245.28 44.921C245.67 45.1377 246.108 45.246 246.593 45.246ZM256.392 42.464C257.319 42.6807 257.783 43.2397 257.783 44.141C257.783 44.739 257.562 45.1983 257.12 45.519C256.678 45.8397 256.019 46 255.144 46H252.037V39.162H255.053C255.833 39.162 256.444 39.3137 256.886 39.617C257.328 39.9203 257.549 40.3537 257.549 40.917C257.549 41.2897 257.445 41.6103 257.237 41.879C257.037 42.139 256.756 42.334 256.392 42.464ZM252.934 42.204H254.988C255.516 42.204 255.919 42.1043 256.197 41.905C256.483 41.7057 256.626 41.4153 256.626 41.034C256.626 40.6527 256.483 40.3667 256.197 40.176C255.919 39.9853 255.516 39.89 254.988 39.89H252.934V42.204ZM255.105 45.272C255.694 45.272 256.136 45.1767 256.431 44.986C256.725 44.7953 256.873 44.4963 256.873 44.089C256.873 43.6817 256.738 43.3827 256.47 43.192C256.201 42.9927 255.776 42.893 255.196 42.893H252.934V45.272H255.105Z" fill="white"/>
<path d="M43.5938 45.1875H42.8906C42.7041 45.1875 42.5253 45.2616 42.3934 45.3934C42.2616 45.5253 42.1875 45.7041 42.1875 45.8906C42.1875 46.0771 42.2616 46.2559 42.3934 46.3878C42.5253 46.5197 42.7041 46.5938 42.8906 46.5938H43.5938C43.7802 46.5938 43.9591 46.5197 44.0909 46.3878C44.2228 46.2559 44.2969 46.0771 44.2969 45.8906C44.2969 45.7041 44.2228 45.5253 44.0909 45.3934C43.9591 45.2616 43.7802 45.1875 43.5938 45.1875Z" fill="white"/>
<path d="M30.9375 33.9375C30.751 33.9375 30.5722 34.0116 30.4403 34.1434C30.3085 34.2753 30.2344 34.4541 30.2344 34.6406V43.8691C30.2344 44.0556 30.3085 44.2345 30.4403 44.3663C30.5722 44.4982 30.751 44.5723 30.9375 44.5723C31.124 44.5723 31.3028 44.4982 31.4347 44.3663C31.5665 44.2345 31.6406 44.0556 31.6406 43.8691V34.6406C31.6406 34.4541 31.5665 34.2753 31.4347 34.1434C31.3028 34.0116 31.124 33.9375 30.9375 33.9375Z" fill="white"/>
<path d="M41.9818 42.5807C41.8498 42.449 41.6709 42.375 41.4844 42.375C41.2979 42.375 41.119 42.449 40.9869 42.5807L39.2941 44.2743L31.5545 30.0853C31.4941 29.9743 31.4049 29.8817 31.2963 29.8172C31.1878 29.7527 31.0638 29.7187 30.9375 29.7188H12.6562C12.53 29.7187 12.406 29.7527 12.2974 29.8172C12.1888 29.8817 12.0996 29.9743 12.0393 30.0853L4.29961 44.2743L2.60684 42.5807C2.54151 42.5153 2.46395 42.4635 2.3786 42.4282C2.29324 42.3928 2.20176 42.3746 2.10938 42.3746C2.01699 42.3746 1.92551 42.3928 1.84015 42.4282C1.7548 42.4635 1.67724 42.5153 1.61191 42.5807C1.54659 42.646 1.49477 42.7235 1.45941 42.8089C1.42406 42.8943 1.40586 42.9857 1.40586 43.0781C1.40586 43.1705 1.42406 43.262 1.45941 43.3473C1.49477 43.4327 1.54659 43.5103 1.61191 43.5756L3.22471 45.1875H1.40625C1.21977 45.1875 1.04093 45.2616 0.909066 45.3934C0.777204 45.5253 0.703125 45.7041 0.703125 45.8906C0.703125 46.0771 0.777204 46.2559 0.909066 46.3878C1.04093 46.5197 1.21977 46.5938 1.40625 46.5938H40.7812C40.9677 46.5938 41.1466 46.5197 41.2784 46.3878C41.4103 46.2559 41.4844 46.0771 41.4844 45.8906C41.4844 45.7041 41.4103 45.5253 41.2784 45.3934C41.1466 45.2616 40.9677 45.1875 40.7812 45.1875H40.369L41.9818 43.5756C42.1135 43.4435 42.1875 43.2646 42.1875 43.0781C42.1875 42.8916 42.1135 42.7127 41.9818 42.5807ZM5.40352 45.1875L13.0737 31.125H29.7527L22.0825 45.1875H5.40352ZM23.6848 45.1875L30.9375 31.8905L38.1902 45.1875H23.6848Z" fill="white"/>
<path d="M7.11914 23.3906H16.2598C17.1569 23.3913 18.0203 23.0489 18.6733 22.4337C19.3262 21.8184 19.7192 20.9768 19.7718 20.0812C19.8244 19.1857 19.5327 18.3038 18.9563 17.6164C18.38 16.9289 17.5626 16.4877 16.6715 16.3833C16.3563 15.4786 15.8006 14.6769 15.0642 14.0641C14.3278 13.4513 13.4385 13.0506 12.4916 12.9051C11.5447 12.7595 10.576 12.8745 9.68956 13.2377C8.80308 13.601 8.03226 14.1988 7.4598 14.9669C7.34631 14.9577 7.23275 14.9531 7.11914 14.9531C6.00026 14.9531 4.9272 15.3976 4.13603 16.1888C3.34486 16.98 2.90039 18.053 2.90039 19.1719C2.90039 20.2908 3.34486 21.3638 4.13603 22.155C4.9272 22.9462 6.00026 23.3906 7.11914 23.3906ZM7.11914 16.3594C7.30121 16.3594 7.48285 16.3771 7.66151 16.4121C7.80199 16.4395 7.94749 16.4235 8.07861 16.3661C8.20973 16.3087 8.32024 16.2127 8.3954 16.0909C8.7965 15.4391 9.38196 14.9209 10.0777 14.602C10.7734 14.2831 11.5481 14.1777 12.3037 14.2993C13.0593 14.4208 13.7619 14.7638 14.3225 15.2848C14.8831 15.8058 15.2765 16.4814 15.453 17.2261C15.4911 17.3853 15.5833 17.5263 15.7139 17.6251C15.8444 17.7238 16.0052 17.7742 16.1688 17.7675C16.1989 17.7662 16.2295 17.7656 16.2596 17.7656C16.819 17.7656 17.3556 17.9878 17.7511 18.3834C18.1467 18.779 18.369 19.3155 18.369 19.8749C18.369 20.4344 18.1467 20.9709 17.7511 21.3665C17.3556 21.7621 16.819 21.9843 16.2596 21.9843H7.11914C6.37322 21.9843 5.65785 21.688 5.1304 21.1605C4.60296 20.6331 4.30664 19.9177 4.30664 19.1718C4.30664 18.4259 4.60296 17.7105 5.1304 17.1831C5.65785 16.6556 6.37322 16.3593 7.11914 16.3593V16.3594Z" fill="white"/>
<path d="M35.8594 15.6562C36.6938 15.6562 37.5094 15.4088 38.2032 14.9452C38.897 14.4817 39.4377 13.8228 39.757 13.0519C40.0763 12.281 40.1598 11.4328 39.9971 10.6144C39.8343 9.79608 39.4325 9.04437 38.8425 8.45436C38.2525 7.86436 37.5008 7.46256 36.6824 7.29978C35.8641 7.137 35.0158 7.22055 34.2449 7.53985C33.4741 7.85916 32.8152 8.39989 32.3516 9.09366C31.888 9.78743 31.6406 10.6031 31.6406 11.4375C31.6419 12.556 32.0867 13.6283 32.8776 14.4192C33.6685 15.2101 34.7409 15.655 35.8594 15.6562ZM35.8594 8.62497C36.4156 8.62497 36.9594 8.78992 37.4219 9.09896C37.8844 9.408 38.2449 9.84726 38.4578 10.3612C38.6707 10.8751 38.7264 11.4406 38.6178 11.9862C38.5093 12.5317 38.2414 13.0329 37.8481 13.4262C37.4548 13.8195 36.9536 14.0874 36.4081 14.1959C35.8625 14.3045 35.297 14.2488 34.7831 14.0359C34.2692 13.823 33.8299 13.4625 33.5209 13C33.2118 12.5375 33.0469 11.9937 33.0469 11.4375C33.0477 10.6918 33.3443 9.97692 33.8716 9.44966C34.3988 8.92239 35.1137 8.62581 35.8594 8.62497Z" fill="white"/>
<path d="M35.8594 6.51562C36.0459 6.51562 36.2247 6.44155 36.3566 6.30968C36.4884 6.17782 36.5625 5.99898 36.5625 5.8125V5.10938C36.5625 4.92289 36.4884 4.74405 36.3566 4.61219C36.2247 4.48033 36.0459 4.40625 35.8594 4.40625C35.6729 4.40625 35.4941 4.48033 35.3622 4.61219C35.2303 4.74405 35.1562 4.92289 35.1562 5.10938V5.8125C35.1562 5.99898 35.2303 6.17782 35.3622 6.30968C35.4941 6.44155 35.6729 6.51562 35.8594 6.51562Z" fill="white"/>
<path d="M35.1562 17.0625V17.7656C35.1562 17.9521 35.2303 18.1309 35.3622 18.2628C35.4941 18.3947 35.6729 18.4688 35.8594 18.4688C36.0459 18.4688 36.2247 18.3947 36.3566 18.2628C36.4884 18.1309 36.5625 17.9521 36.5625 17.7656V17.0625C36.5625 16.876 36.4884 16.6972 36.3566 16.5653C36.2247 16.4335 36.0459 16.3594 35.8594 16.3594C35.6729 16.3594 35.4941 16.4335 35.3622 16.5653C35.2303 16.6972 35.1562 16.876 35.1562 17.0625Z" fill="white"/>
<path d="M40.7812 11.4375C40.7812 11.624 40.8553 11.8028 40.9872 11.9347C41.1191 12.0665 41.2979 12.1406 41.4844 12.1406H42.1875C42.374 12.1406 42.5528 12.0665 42.6847 11.9347C42.8165 11.8028 42.8906 11.624 42.8906 11.4375C42.8906 11.251 42.8165 11.0722 42.6847 10.9403C42.5528 10.8085 42.374 10.7344 42.1875 10.7344H41.4844C41.2979 10.7344 41.1191 10.8085 40.9872 10.9403C40.8553 11.0722 40.7812 11.251 40.7812 11.4375Z" fill="white"/>
<path d="M29.5312 12.1406H30.2344C30.4209 12.1406 30.5997 12.0665 30.7316 11.9347C30.8634 11.8028 30.9375 11.624 30.9375 11.4375C30.9375 11.251 30.8634 11.0722 30.7316 10.9403C30.5997 10.8085 30.4209 10.7344 30.2344 10.7344H29.5312C29.3448 10.7344 29.1659 10.8085 29.0341 10.9403C28.9022 11.0722 28.8281 11.251 28.8281 11.4375C28.8281 11.624 28.9022 11.8028 29.0341 11.9347C29.1659 12.0665 29.3448 12.1406 29.5312 12.1406Z" fill="white"/>
<path d="M39.8369 8.16311C39.9292 8.16324 40.0207 8.14511 40.106 8.10977C40.1914 8.07443 40.2689 8.02257 40.3341 7.95718L40.8313 7.45998C40.9631 7.32812 41.0372 7.14927 41.0372 6.96279C41.0372 6.7763 40.9631 6.59745 40.8313 6.46559C40.6994 6.33372 40.5206 6.25964 40.3341 6.25964C40.1476 6.25964 39.9688 6.33372 39.8369 6.46559L39.3399 6.96279C39.2415 7.06112 39.1746 7.18641 39.1474 7.3228C39.1203 7.4592 39.1342 7.60058 39.1874 7.72906C39.2407 7.85754 39.3308 7.96736 39.4464 8.04462C39.562 8.12188 39.698 8.16311 39.8371 8.16311H39.8369Z" fill="white"/>
<path d="M31.3847 14.918L30.8875 15.4152C30.8222 15.4804 30.7704 15.558 30.735 15.6433C30.6997 15.7286 30.6815 15.82 30.6815 15.9123C30.6815 16.0047 30.6997 16.0961 30.735 16.1814C30.7704 16.2667 30.8222 16.3443 30.8875 16.4095C30.9528 16.4748 31.0303 16.5266 31.1156 16.562C31.2009 16.5973 31.2923 16.6155 31.3847 16.6155C31.477 16.6155 31.5684 16.5973 31.6537 16.562C31.7391 16.5266 31.8166 16.4748 31.8819 16.4095L32.3791 15.9123C32.4444 15.8471 32.4961 15.7695 32.5315 15.6842C32.5668 15.5989 32.585 15.5075 32.585 15.4152C32.585 15.3228 32.5668 15.2314 32.5315 15.1461C32.4961 15.0608 32.4444 14.9832 32.3791 14.918C32.3138 14.8527 32.2363 14.8009 32.1509 14.7655C32.0656 14.7302 31.9742 14.712 31.8819 14.712C31.7895 14.712 31.6981 14.7302 31.6128 14.7655C31.5275 14.8009 31.45 14.8527 31.3847 14.918Z" fill="white"/>
<path d="M40.3341 14.918C40.2693 14.8508 40.1917 14.7972 40.1059 14.7604C40.0201 14.7235 39.9278 14.7041 39.8345 14.7033C39.7411 14.7025 39.6485 14.7203 39.5621 14.7557C39.4757 14.791 39.3972 14.8432 39.3312 14.9092C39.2652 14.9753 39.213 15.0538 39.1776 15.1402C39.1422 15.2266 39.1245 15.3192 39.1253 15.4125C39.1261 15.5059 39.1455 15.5982 39.1823 15.6839C39.2192 15.7697 39.2727 15.8473 39.3399 15.9122L39.8371 16.4094C39.969 16.5412 40.1478 16.6153 40.3343 16.6153C40.5208 16.6153 40.6996 16.5412 40.8315 16.4094C40.9634 16.2775 41.0374 16.0987 41.0374 15.9122C41.0374 15.7257 40.9634 15.5468 40.8315 15.415L40.3341 14.918Z" fill="white"/>
<path d="M31.3847 7.95701C31.4496 8.02416 31.5272 8.07773 31.6129 8.11458C31.6987 8.15143 31.791 8.17082 31.8844 8.17163C31.9777 8.17245 32.0703 8.15466 32.1567 8.1193C32.2431 8.08395 32.3216 8.03174 32.3877 7.96572C32.4537 7.8997 32.5059 7.8212 32.5412 7.73479C32.5766 7.64837 32.5944 7.55579 32.5936 7.46243C32.5928 7.36907 32.5734 7.2768 32.5365 7.19102C32.4997 7.10523 32.4461 7.02765 32.3789 6.96279L31.8817 6.46559C31.7499 6.33372 31.571 6.25964 31.3845 6.25964C31.1981 6.25964 31.0192 6.33372 30.8873 6.46559C30.7555 6.59745 30.6814 6.7763 30.6814 6.96279C30.6814 7.14927 30.7555 7.32812 30.8873 7.45998L31.3847 7.95701Z" fill="white"/>
</svg>
