<svg width="33" height="35" viewBox="0 0 33 35" fill="none" xmlns="http://www.w3.org/2000/svg">
<path d="M25.2656 26.25C24.9597 26.25 24.6606 26.3462 24.4062 26.5265C24.1518 26.7068 23.9536 26.963 23.8365 27.2628C23.7194 27.5626 23.6888 27.8924 23.7485 28.2107C23.8082 28.5289 23.9555 28.8213 24.1718 29.0507C24.3882 29.2802 24.6638 29.4364 24.9638 29.4997C25.2639 29.563 25.5749 29.5305 25.8576 29.4064C26.1402 29.2822 26.3818 29.0719 26.5518 28.8021C26.7218 28.5323 26.8125 28.2151 26.8125 27.8906C26.812 27.4557 26.6489 27.0386 26.3589 26.7311C26.0689 26.4235 25.6757 26.2505 25.2656 26.25ZM25.2656 28.4375C25.1636 28.4375 25.064 28.4054 24.9792 28.3453C24.8944 28.2852 24.8283 28.1998 24.7893 28.0999C24.7502 28 24.74 27.89 24.7599 27.7839C24.7798 27.6779 24.8289 27.5804 24.901 27.5039C24.9731 27.4274 25.065 27.3754 25.165 27.3543C25.2651 27.3332 25.3687 27.344 25.4629 27.3854C25.5572 27.4268 25.6377 27.4969 25.6944 27.5868C25.751 27.6767 25.7813 27.7825 25.7813 27.8906C25.7811 28.0356 25.7267 28.1746 25.6301 28.2771C25.5334 28.3797 25.4023 28.4373 25.2656 28.4375Z" fill="#536D85"/>
<path d="M6.70313 26.25C6.39718 26.25 6.09811 26.3462 5.84373 26.5265C5.58935 26.7068 5.39108 26.963 5.274 27.2628C5.15692 27.5626 5.12629 27.8924 5.18597 28.2107C5.24566 28.5289 5.39299 28.8213 5.60932 29.0507C5.82565 29.2802 6.10128 29.4364 6.40135 29.4997C6.70141 29.563 7.01244 29.5305 7.29509 29.4064C7.57774 29.2822 7.81933 29.0719 7.98931 28.8021C8.15928 28.5323 8.25 28.2151 8.25 27.8906C8.24954 27.4557 8.08642 27.0386 7.79642 26.7311C7.50643 26.4235 7.11324 26.2505 6.70313 26.25ZM6.70313 28.4375C6.60115 28.4375 6.50145 28.4054 6.41666 28.3453C6.33187 28.2852 6.26578 28.1998 6.22675 28.0999C6.18772 28 6.17751 27.89 6.19741 27.7839C6.2173 27.6779 6.26641 27.5804 6.33852 27.5039C6.41064 27.4274 6.50251 27.3754 6.60253 27.3543C6.70255 27.3332 6.80623 27.344 6.90045 27.3854C6.99467 27.4268 7.0752 27.4969 7.13185 27.5868C7.18851 27.6767 7.21875 27.7825 7.21875 27.8906C7.2186 28.0356 7.16422 28.1746 7.06756 28.2771C6.97089 28.3797 6.83983 28.4373 6.70313 28.4375Z" fill="#536D85"/>
<path d="M32.4567 21.6986L30.0029 14.0561V14.0554L29.9217 13.8038C29.9166 13.7881 29.9114 13.773 29.905 13.758C29.6212 13.0816 29.1586 12.5068 28.5733 12.1033C27.988 11.6998 27.305 11.4848 26.6069 11.4844H23.2031V10.9375H29.9062C29.9995 10.9374 30.091 10.9104 30.171 10.8595C30.2511 10.8086 30.3166 10.7357 30.3606 10.6484C30.4046 10.5612 30.4255 10.4629 30.4211 10.3641C30.4167 10.2653 30.3871 10.1695 30.3355 10.0871L29.3043 8.44648C29.257 8.37171 29.1931 8.31041 29.1183 8.26797C29.0434 8.22553 28.9599 8.20326 28.875 8.20312H20.625V5.46875C20.625 5.32371 20.5707 5.18461 20.474 5.08205C20.3773 4.97949 20.2461 4.92188 20.1094 4.92188H19.0781V3.82812C19.0781 3.68308 19.0238 3.54399 18.9271 3.44143C18.8304 3.33887 18.6992 3.28125 18.5625 3.28125H16.5C16.3632 3.28125 16.2321 3.33887 16.1354 3.44143C16.0387 3.54399 15.9844 3.68308 15.9844 3.82812V4.92188H13.9219V3.82812C13.9219 3.68308 13.8675 3.54399 13.7709 3.44143C13.6742 3.33887 13.543 3.28125 13.4062 3.28125H11.3437C11.207 3.28125 11.0758 3.33887 10.9791 3.44143C10.8824 3.54399 10.8281 3.68308 10.8281 3.82812V4.92188H9.79688C9.66012 4.92188 9.52897 4.97949 9.43227 5.08205C9.33557 5.18461 9.28125 5.32371 9.28125 5.46875V8.20312H7.69699C7.57192 7.29261 7.14227 6.46017 6.4865 5.85777C5.83072 5.25537 4.99255 4.92319 4.125 4.92188C4.05016 4.9219 3.97621 4.9392 3.9083 4.97258C3.8404 5.00596 3.78016 5.05462 3.73177 5.11518C3.68338 5.17574 3.648 5.24675 3.62809 5.32327C3.60818 5.39979 3.60421 5.47999 3.61647 5.5583L4.03219 8.20312H2.57813C2.44137 8.20312 2.31022 8.26074 2.21353 8.3633C2.11683 8.46586 2.0625 8.60496 2.0625 8.75V10.3906C2.0625 10.5357 2.11683 10.6748 2.21353 10.7773C2.31022 10.8799 2.44137 10.9375 2.57813 10.9375H7.21875V11.4844H4.125C3.39892 11.4854 2.68996 11.7183 2.09045 12.1528C1.49093 12.5872 1.02864 13.203 0.763772 13.92C0.753681 13.9421 0.745275 13.9649 0.738635 13.9884C0.590626 14.4122 0.515107 14.8606 0.515628 15.3125V27.8906C0.515628 28.0357 0.569952 28.1748 0.666651 28.2773C0.763349 28.3799 0.8945 28.4375 1.03125 28.4375H3.13113C3.24466 29.2692 3.61345 30.038 4.18043 30.625H1.03125C0.8945 30.625 0.763349 30.6826 0.666651 30.7852C0.569952 30.8877 0.515628 31.0268 0.515628 31.1719C0.515628 31.3169 0.569952 31.456 0.666651 31.5586C0.763349 31.6611 0.8945 31.7188 1.03125 31.7188H29.9062C30.043 31.7188 30.1741 31.6611 30.2708 31.5586C30.3675 31.456 30.4219 31.3169 30.4219 31.1719C30.4219 31.0268 30.3675 30.8877 30.2708 30.7852C30.1741 30.6826 30.043 30.625 29.9062 30.625H27.7883C28.3553 30.038 28.7241 29.2692 28.8376 28.4375H31.9687C32.1055 28.4375 32.2366 28.3799 32.3333 28.2773C32.43 28.1748 32.4844 28.0357 32.4844 27.8906V21.875C32.4846 21.815 32.4752 21.7554 32.4567 21.6986ZM30.5463 19.1406H23.7187V14.7656H29.1412L30.5463 19.1406ZM17.0156 4.375H18.0469V4.92188H17.0156V4.375ZM15.4687 6.01562H19.5937V8.20312H15.4687V6.01562ZM11.8594 4.375H12.8906V4.92188H11.8594V4.375ZM10.3125 6.01562H14.4375V8.20312H10.3125V6.01562ZM6.65156 8.20312H5.07762L4.74633 6.09561C5.21868 6.2212 5.64804 6.4856 5.98506 6.85841C6.32209 7.23121 6.5531 7.69731 6.65156 8.20312ZM3.09375 9.84375V9.29688H28.5991L28.9427 9.84375H3.09375ZM22.1719 10.9375V11.4844H8.25V10.9375H22.1719ZM1.54688 15.3125C1.54721 15.1054 1.56948 14.8991 1.61326 14.6973H6.1875V19.1406H1.54688V15.3125ZM1.54688 20.2344H6.70313C6.83988 20.2344 6.97103 20.1768 7.06773 20.0742C7.16443 19.9716 7.21875 19.8325 7.21875 19.6875V14.1504C7.21875 14.0054 7.16443 13.8663 7.06773 13.7637C6.97103 13.6611 6.83988 13.6035 6.70313 13.6035H2.11471C2.35579 13.2836 2.66166 13.0253 3.00966 12.8478C3.35766 12.6703 3.73885 12.5781 4.125 12.5781H26.6069C27.007 12.5784 27.4016 12.6773 27.7594 12.8671C28.1173 13.0569 28.4286 13.3325 28.6687 13.6719H23.2031C23.0664 13.6719 22.9352 13.7295 22.8385 13.8321C22.7418 13.9346 22.6875 14.0737 22.6875 14.2188V19.6875C22.6875 19.8325 22.7418 19.9716 22.8385 20.0742C22.9352 20.1768 23.0664 20.2344 23.2031 20.2344H30.8975L31.4241 21.875H1.54688V20.2344ZM1.54688 24.6094H2.0625L2.06315 25.1562H1.54688V24.6094ZM6.70313 30.625C6.19322 30.625 5.69477 30.4646 5.2708 30.1642C4.84683 29.8637 4.51638 29.4367 4.32125 28.937C4.12612 28.4374 4.07506 27.8876 4.17454 27.3572C4.27402 26.8268 4.51956 26.3395 4.88012 25.9571C5.24067 25.5747 5.70005 25.3143 6.20016 25.2088C6.70027 25.1033 7.21864 25.1574 7.68973 25.3644C8.16082 25.5714 8.56347 25.9218 8.84676 26.3715C9.13005 26.8212 9.28125 27.3498 9.28125 27.8906C9.28057 28.6156 9.00873 29.3107 8.52538 29.8233C8.04204 30.336 7.38668 30.6243 6.70313 30.625ZM9.22582 30.625C9.7928 30.038 10.1616 29.2692 10.2751 28.4375H21.6936C21.8072 29.2692 22.1759 30.038 22.7429 30.625H9.22582ZM25.2656 30.625C24.7557 30.625 24.2573 30.4646 23.8333 30.1642C23.4093 29.8637 23.0789 29.4367 22.8837 28.937C22.6886 28.4374 22.6376 27.8876 22.737 27.3572C22.8365 26.8268 23.0821 26.3395 23.4426 25.9571C23.8032 25.5747 24.2625 25.3143 24.7627 25.2088C25.2628 25.1033 25.7811 25.1574 26.2522 25.3644C26.7233 25.5714 27.126 25.9218 27.4093 26.3715C27.6925 26.8212 27.8437 27.3498 27.8437 27.8906C27.8431 28.6156 27.5712 29.3107 27.0879 29.8233C26.6045 30.336 25.9492 30.6243 25.2656 30.625ZM31.4531 25.1562H30.4219V24.6094H31.4531V25.1562ZM31.4531 23.5156H30.4219C30.1485 23.516 29.8864 23.6314 29.6931 23.8364C29.4997 24.0414 29.391 24.3194 29.3906 24.6094V25.1562C29.391 25.4462 29.4997 25.7242 29.6931 25.9292C29.8864 26.1343 30.1485 26.2496 30.4219 26.25H31.4531V27.3438H28.8376C28.7137 26.4327 28.2843 25.5996 27.6283 24.997C26.9723 24.3944 26.1335 24.0627 25.2656 24.0627C24.3978 24.0627 23.559 24.3944 22.9029 24.997C22.2469 25.5996 21.8176 26.4327 21.6936 27.3438H10.2751C10.1512 26.4327 9.72185 25.5996 9.06582 24.997C8.40979 24.3944 7.57099 24.0627 6.70313 24.0627C5.83526 24.0627 4.99647 24.3944 4.34044 24.997C3.68441 25.5996 3.25508 26.4327 3.13113 27.3438H1.54688V26.25H2.0625C2.3359 26.2496 2.59799 26.1343 2.79131 25.9292C2.98463 25.7242 3.09339 25.4462 3.09375 25.1562V24.6094C3.09339 24.3194 2.98463 24.0414 2.79131 23.8364C2.59799 23.6314 2.3359 23.516 2.0625 23.5156H1.54688V22.9688H31.4531V23.5156Z" fill="#536D85"/>
<path d="M8.76562 20.2344H21.1406C21.2774 20.2344 21.4085 20.1768 21.5052 20.0742C21.6019 19.9716 21.6562 19.8325 21.6562 19.6875V14.2188C21.6562 14.0737 21.6019 13.9346 21.5052 13.8321C21.4085 13.7295 21.2774 13.6719 21.1406 13.6719H8.76562C8.62887 13.6719 8.49772 13.7295 8.40102 13.8321C8.30432 13.9346 8.25 14.0737 8.25 14.2188V19.6875C8.25 19.8325 8.30432 19.9716 8.40102 20.0742C8.49772 20.1768 8.62887 20.2344 8.76562 20.2344ZM20.625 19.1406H15.4688V14.7656H20.625V19.1406ZM9.28125 14.7656H14.4375V19.1406H9.28125V14.7656Z" fill="#536D85"/>
<path d="M31.9687 30.625H31.4531C31.3164 30.625 31.1852 30.6826 31.0885 30.7852C30.9918 30.8877 30.9375 31.0268 30.9375 31.1719C30.9375 31.3169 30.9918 31.456 31.0885 31.5586C31.1852 31.6611 31.3164 31.7188 31.4531 31.7188H31.9687C32.1055 31.7188 32.2366 31.6611 32.3333 31.5586C32.43 31.456 32.4844 31.3169 32.4844 31.1719C32.4844 31.0268 32.43 30.8877 32.3333 30.7852C32.2366 30.6826 32.1055 30.625 31.9687 30.625Z" fill="#536D85"/>
</svg>
