<svg width="34" height="34" viewBox="0 0 34 34" fill="none" xmlns="http://www.w3.org/2000/svg">
<path d="M20.7188 6.93759V4.25C20.7188 4.1091 20.6628 3.97398 20.5632 3.87435C20.4635 3.77472 20.3284 3.71875 20.1875 3.71875H19.125V1.0625C19.125 0.921604 19.069 0.786478 18.9694 0.68685C18.8698 0.587221 18.7346 0.53125 18.5938 0.53125H15.4062C15.2654 0.53125 15.1302 0.587221 15.0306 0.68685C14.931 0.786478 14.875 0.921604 14.875 1.0625V3.71875H13.8125C13.6716 3.71875 13.5365 3.77472 13.4368 3.87435C13.3372 3.97398 13.2812 4.1091 13.2812 4.25V6.93759C12.1132 7.06936 11.0345 7.62631 10.2507 8.5023C9.4669 9.37828 9.03284 10.5121 9.03125 11.6875V28.6875C9.03266 29.9551 9.53684 31.1704 10.4332 32.0668C11.3296 32.9632 12.5449 33.4673 13.8125 33.4688H20.1875C21.4551 33.4673 22.6704 32.9632 23.5668 32.0668C24.4632 31.1704 24.9673 29.9551 24.9688 28.6875V11.6875C24.9672 10.5121 24.5331 9.37828 23.7493 8.5023C22.9655 7.62631 21.8868 7.06936 20.7188 6.93759ZM15.9375 1.59375H18.0625V3.71875H15.9375V1.59375ZM14.3438 4.78125H19.6562V6.90625H14.3438V4.78125ZM13.8125 7.96875H20.1875C21.1734 7.96987 22.1187 8.36203 22.8158 9.05919C23.513 9.75635 23.9051 10.7016 23.9062 11.6875V13.2812H10.0938V11.6875C10.0949 10.7016 10.487 9.75635 11.1842 9.05919C11.8813 8.36203 12.8266 7.96987 13.8125 7.96875ZM23.9062 26.0312H10.0938V14.3438H23.9062V26.0312ZM20.1875 32.4062H13.8125C12.8266 32.4051 11.8813 32.013 11.1842 31.3158C10.487 30.6187 10.0949 29.6734 10.0938 28.6875V27.0938H23.9062V28.6875C23.9051 29.6734 23.513 30.6187 22.8158 31.3158C22.1187 32.013 21.1734 32.4051 20.1875 32.4062Z" fill="#2C5D3A"/>
<path d="M16.4688 30.2812H12.75C12.6091 30.2812 12.474 30.3372 12.3743 30.4368C12.2747 30.5365 12.2188 30.6716 12.2188 30.8125C12.2188 30.9534 12.2747 31.0885 12.3743 31.1882C12.474 31.2878 12.6091 31.3438 12.75 31.3438H16.4688C16.6096 31.3438 16.7448 31.2878 16.8444 31.1882C16.944 31.0885 17 30.9534 17 30.8125C17 30.6716 16.944 30.5365 16.8444 30.4368C16.7448 30.3372 16.6096 30.2812 16.4688 30.2812Z" fill="#2C5D3A"/>
<path d="M18.5938 30.2812H18.0625C17.9216 30.2812 17.7865 30.3372 17.6868 30.4368C17.5872 30.5365 17.5312 30.6716 17.5312 30.8125C17.5312 30.9534 17.5872 31.0885 17.6868 31.1882C17.7865 31.2878 17.9216 31.3438 18.0625 31.3438H18.5938C18.7346 31.3438 18.8698 31.2878 18.9694 31.1882C19.069 31.0885 19.125 30.9534 19.125 30.8125C19.125 30.6716 19.069 30.5365 18.9694 30.4368C18.8698 30.3372 18.7346 30.2812 18.5938 30.2812Z" fill="#2C5D3A"/>
</svg>
